<?xml version="1.0" encoding="UTF-8"?>
<svg xmlns="http://www.w3.org/2000/svg" xmlns:xlink="http://www.w3.org/1999/xlink" width="85px" height="48px" viewBox="0 0 85 48" version="1.1">
<g id="surface1">
<path style=" stroke:none;fill-rule:nonzero;fill:rgb(23.529412%,70.588235%,90.196078%);fill-opacity:1;" d="M 42.433594 45.691406 C 54.265625 45.691406 63.871094 36.054688 63.871094 24.171875 C 63.871094 12.292969 54.265625 2.652344 42.433594 2.652344 C 30.601562 2.652344 20.996094 12.292969 20.996094 24.171875 C 20.996094 36.054688 30.601562 45.691406 42.433594 45.691406 Z M 42.433594 45.691406 "/>
<path style=" stroke:none;fill-rule:nonzero;fill:rgb(100%,100%,100%);fill-opacity:1;" d="M 32.140625 10.292969 C 34.929688 8.132812 43.097656 11.691406 45.078125 13.546875 C 44.929688 12.933594 44.945312 11.867188 45.460938 11.347656 C 46.140625 11.519531 46.695312 12.347656 46.9375 13 C 47.878906 11.171875 54.664062 0.160156 57.546875 4.453125 C 59.539062 7.414062 57.761719 13.054688 55.488281 15.078125 C 59.046875 16.878906 61.613281 19.667969 58.503906 23.359375 C 54.839844 27.71875 51.132812 23.761719 48.503906 20.851562 C 49.074219 22.347656 49.59375 24.625 49.3125 25.867188 C 48.621094 25.027344 47.8125 22.585938 47.558594 21.054688 C 46.722656 24.546875 46.21875 28.414062 41.914062 28.519531 C 35.699219 28.652344 36.019531 22.867188 38.460938 19.519531 C 35.355469 19.773438 32.046875 14.640625 31.714844 11.574219 C 31.714844 11.574219 31.597656 10.71875 32.140625 10.292969 "/>
<path style=" stroke:none;fill-rule:nonzero;fill:rgb(100%,100%,100%);fill-opacity:1;" d="M 29.058594 36.078125 L 29.058594 36.28125 C 29.058594 36.894531 29.230469 37.292969 29.9375 37.292969 C 30.335938 37.292969 30.71875 37.039062 30.71875 36.480469 C 30.71875 35.878906 30.414062 35.652344 29.550781 35.359375 C 28.382812 34.960938 27.835938 34.464844 27.835938 33.375 C 27.835938 32.09375 28.621094 31.441406 29.871094 31.441406 C 31.039062 31.441406 31.902344 31.945312 31.902344 33.214844 L 31.902344 33.398438 L 30.640625 33.398438 C 30.640625 32.785156 30.425781 32.425781 29.921875 32.425781 C 29.324219 32.425781 29.164062 32.800781 29.164062 33.1875 C 29.164062 33.585938 29.285156 33.839844 29.84375 34.078125 L 30.867188 34.519531 C 31.863281 34.945312 32.113281 35.453125 32.113281 36.265625 C 32.113281 37.652344 31.265625 38.28125 29.84375 38.28125 C 28.34375 38.28125 27.757812 37.574219 27.757812 36.359375 L 27.757812 36.09375 L 29.058594 36.09375 Z M 29.058594 36.078125 "/>
<path style=" stroke:none;fill-rule:nonzero;fill:rgb(100%,100%,100%);fill-opacity:1;" d="M 36.589844 31.546875 L 36.589844 32.640625 L 35.15625 32.640625 L 35.15625 38.132812 L 33.828125 38.132812 L 33.828125 32.640625 L 32.40625 32.640625 L 32.40625 31.546875 Z M 36.589844 31.546875 "/>
<path style=" stroke:none;fill-rule:nonzero;fill:rgb(100%,100%,100%);fill-opacity:1;" d="M 37.1875 31.546875 L 39.152344 31.546875 L 40.097656 36.1875 L 40.109375 36.1875 L 41.050781 31.546875 L 43.003906 31.546875 L 43.003906 38.132812 L 41.796875 38.132812 L 41.796875 32.878906 L 41.78125 32.878906 L 40.613281 38.132812 L 39.589844 38.132812 L 38.421875 32.878906 L 38.410156 32.878906 L 38.410156 38.132812 L 37.1875 38.132812 Z M 37.1875 31.546875 "/>
<path style=" stroke:none;fill-rule:nonzero;fill:rgb(100%,100%,100%);fill-opacity:1;" d="M 45.15625 34.453125 L 45.554688 34.453125 C 46.246094 34.453125 46.550781 33.960938 46.550781 33.308594 C 46.550781 32.707031 46.324219 32.214844 45.699219 32.214844 C 44.851562 32.214844 44.757812 33 44.757812 33.480469 L 43.960938 33.480469 C 43.960938 32.359375 44.480469 31.601562 45.6875 31.601562 C 47.042969 31.601562 47.359375 32.574219 47.359375 33.292969 C 47.359375 33.945312 47.027344 34.535156 46.351562 34.691406 L 46.351562 34.707031 C 47.082031 34.851562 47.558594 35.320312 47.558594 36.226562 C 47.558594 37.414062 46.960938 38.238281 45.714844 38.238281 C 43.972656 38.238281 43.867188 36.707031 43.867188 36.425781 L 43.867188 36.347656 L 44.679688 36.347656 C 44.679688 36.945312 44.96875 37.640625 45.714844 37.640625 C 46.191406 37.640625 46.75 37.398438 46.75 36.292969 C 46.75 35.535156 46.378906 35.054688 45.582031 35.054688 L 45.15625 35.054688 Z M 45.15625 34.453125 "/>
<path style=" stroke:none;fill-rule:nonzero;fill:rgb(100%,100%,100%);fill-opacity:1;" d="M 51.929688 38.132812 L 48.289062 38.132812 C 48.289062 36.921875 48.96875 36.09375 49.699219 35.464844 L 50.230469 35.011719 C 50.746094 34.558594 51.09375 34.160156 51.09375 33.441406 C 51.09375 32.878906 50.839844 32.265625 50.148438 32.265625 C 49.152344 32.265625 49.128906 33.308594 49.128906 33.679688 L 48.316406 33.679688 C 48.316406 32.441406 48.835938 31.601562 50.164062 31.601562 C 51.664062 31.601562 51.902344 32.773438 51.902344 33.347656 C 51.902344 34.347656 51.492188 34.867188 50.761719 35.492188 L 49.84375 36.292969 C 49.484375 36.601562 49.234375 36.972656 49.140625 37.414062 L 51.929688 37.414062 Z M 51.929688 38.132812 "/>
</g>
</svg>
