<svg xmlns="http://www.w3.org/2000/svg" xmlns:xlink="http://www.w3.org/1999/xlink" version="1.1" width="1000" height="1000" viewBox="0 0 1000 1000" xml:space="preserve">
<desc>Created with Fabric.js 3.5.0</desc>
<defs>
</defs>
<rect x="0" y="0" width="100%" height="100%" fill="rgba(255,255,255,0)"/>
<g transform="matrix(3.2277 0 0 3.2277 499.993 499.996)" id="884700">
<g style="" vector-effect="non-scaling-stroke">
		<g transform="matrix(1 0 0 1 -0.5 -1)" id="Layer_2">
<path style="stroke: none; stroke-width: 1; stroke-dasharray: none; stroke-linecap: butt; stroke-dashoffset: 0; stroke-linejoin: miter; stroke-miterlimit: 4; is-custom-font: none; font-file-url: none; fill: rgb(60,180,230); fill-rule: nonzero; opacity: 1;" transform=" translate(-319.5, -179)" d="M 319.5 329 c 82.9 0 150 -67.2 150 -150 s -67.2 -150 -150 -150 s -150 67.2 -150 150 S 236.7 329 319.5 329" stroke-linecap="round"/>
</g>
		<g transform="matrix(1 0 0 1 -109.7 49.8)" id="Layer_2">
<path style="stroke: none; stroke-width: 1; stroke-dasharray: none; stroke-linecap: butt; stroke-dashoffset: 0; stroke-linejoin: miter; stroke-miterlimit: 4; is-custom-font: none; font-file-url: none; fill: rgb(255,255,255); fill-rule: nonzero; opacity: 1;" transform=" translate(-210.3, -229.8)" d="M 204.4 238.4 v 1.4 c 0 4.3 1.2 7.1 6.1 7.1 c 2.8 0 5.5 -1.8 5.5 -5.7 c 0 -4.2 -2.1 -5.7 -8.2 -7.8 c -8.2 -2.8 -12 -6.2 -12 -13.9 c 0 -8.9 5.5 -13.5 14.2 -13.5 c 8.2 0 14.2 3.6 14.2 12.3 v 1.3 h -8.9 c 0 -4.3 -1.5 -6.8 -5 -6.8 c -4.2 0 -5.3 2.6 -5.3 5.3 c 0 2.8 0.8 4.6 4.8 6.2 l 7.1 3.1 c 7 3 8.7 6.5 8.7 12.1 c 0 9.7 -5.9 14.1 -16 14.1 c -10.5 0 -14.6 -4.9 -14.6 -13.4 v -1.9 C 195.1 238.4 204.4 238.4 204.4 238.4 z" stroke-linecap="round"/>
</g>
		<g transform="matrix(1 0 0 1 -77.45 49.75)" id="Layer_2">
<path style="stroke: none; stroke-width: 1; stroke-dasharray: none; stroke-linecap: butt; stroke-dashoffset: 0; stroke-linejoin: miter; stroke-miterlimit: 4; is-custom-font: none; font-file-url: none; fill: rgb(255,255,255); fill-rule: nonzero; opacity: 1;" transform=" translate(-242.55, -229.75)" d="M 257.2 206.8 v 7.6 h -10 v 38.3 h -9.3 v -38.3 h -10 v -7.6 H 257.2 z" stroke-linecap="round"/>
</g>
		<g transform="matrix(1 0 0 1 -38.4 49.75)" id="Layer_2">
<path style="stroke: none; stroke-width: 1; stroke-dasharray: none; stroke-linecap: butt; stroke-dashoffset: 0; stroke-linejoin: miter; stroke-miterlimit: 4; is-custom-font: none; font-file-url: none; fill: rgb(255,255,255); fill-rule: nonzero; opacity: 1;" transform=" translate(-281.6, -229.75)" d="M 261.3 206.8 h 13.8 l 6.5 32.4 h 0.1 l 6.6 -32.4 H 302 v 45.9 h -8.5 v -36.6 h -0.1 l -8.2 36.6 H 278 l -8.2 -36.6 h -0.1 v 36.6 h -8.5 L 261.3 206.8 L 261.3 206.8 z" stroke-linecap="round"/>
</g>
		<g transform="matrix(1 0 0 1 0.9 50.4)" id="Layer_2">
<path style="stroke: none; stroke-width: 1; stroke-dasharray: none; stroke-linecap: butt; stroke-dashoffset: 0; stroke-linejoin: miter; stroke-miterlimit: 4; is-custom-font: none; font-file-url: none; fill: rgb(255,255,255); fill-rule: nonzero; opacity: 1;" transform=" translate(-320.9, -230.4)" d="M 317 227.1 h 2.8 c 4.8 0 7 -3.5 7 -8.1 c 0 -4.2 -1.5 -7.6 -5.9 -7.6 c -6 0 -6.5 5.5 -6.5 8.9 h -5.7 c 0 -7.8 3.7 -13.1 12.1 -13.1 c 9.5 0 11.7 6.8 11.7 11.8 c 0 4.6 -2.3 8.6 -7.1 9.8 v 0.1 c 5.1 1 8.4 4.3 8.4 10.6 c 0 8.3 -4.2 14.1 -12.9 14.1 c -12.2 0 -12.9 -10.7 -12.9 -12.7 v -0.6 h 5.7 c 0 4.2 2 9 7.3 9 c 3.3 0 7.3 -1.7 7.3 -9.4 c 0 -5.3 -2.6 -8.7 -8.2 -8.7 h -2.9 L 317 227.1 L 317 227.1 z" stroke-linecap="round"/>
</g>
		<g transform="matrix(1 0 0 1 31.8 49.95)" id="Layer_2">
<path style="stroke: none; stroke-width: 1; stroke-dasharray: none; stroke-linecap: butt; stroke-dashoffset: 0; stroke-linejoin: miter; stroke-miterlimit: 4; is-custom-font: none; font-file-url: none; fill: rgb(255,255,255); fill-rule: nonzero; opacity: 1;" transform=" translate(-351.8, -229.95)" d="M 364.5 252.7 h -25.4 c 0 -8.5 4.8 -14.2 9.8 -18.6 l 3.7 -3.1 c 3.7 -3.1 6 -5.9 6 -10.9 c 0 -3.9 -1.7 -8.2 -6.6 -8.2 c -7 0 -7.2 7.3 -7.2 9.8 h -5.7 c 0 -8.6 3.6 -14.5 12.9 -14.5 c 10.5 0 12.2 8.2 12.2 12.1 c 0 7 -2.9 10.6 -8 15 l -6.4 5.6 c -2.5 2.1 -4.3 4.8 -5 7.8 h 19.7 V 252.7 L 364.5 252.7 z" stroke-linecap="round"/>
</g>
		<g transform="matrix(1 0 0 1 -31.75 102.6)" id="Layer_2">
<path style="stroke: none; stroke-width: 1; stroke-dasharray: none; stroke-linecap: butt; stroke-dashoffset: 0; stroke-linejoin: miter; stroke-miterlimit: 4; is-custom-font: none; font-file-url: none; fill: rgb(255,255,255); fill-rule: nonzero; opacity: 1;" transform=" translate(-288.25, -282.6)" d="M 302.6 289.9 c -0.5 8.7 -3.9 16.6 -13.9 16.6 c -13 0 -14.8 -12.3 -14.8 -23.9 s 2.1 -23.9 14.8 -23.9 c 9.4 0 13.3 5.3 13.6 14.2 h -5.9 c -0.1 -5.2 -1.8 -9.6 -7.6 -9.6 c -7.8 0 -8.9 8.6 -8.9 19.2 s 1 19.2 8.9 19.2 c 6.9 0 7.8 -6.4 8 -12 L 302.6 289.9 L 302.6 289.9 z" stroke-linecap="round"/>
</g>
		<g transform="matrix(1 0 0 1 -0.95 108.95)" id="Layer_2">
<path style="stroke: none; stroke-width: 1; stroke-dasharray: none; stroke-linecap: butt; stroke-dashoffset: 0; stroke-linejoin: miter; stroke-miterlimit: 4; is-custom-font: none; font-file-url: none; fill: rgb(255,255,255); fill-rule: nonzero; opacity: 1;" transform=" translate(-319.05, -288.95)" d="M 330.4 305.6 h -5.1 v -4 h -0.1 c -1.4 3.1 -5 5 -8.4 5 c -9.1 0 -9.1 -6.9 -9.1 -10.9 v -24.4 h 5.4 v 23.8 c 0 2.6 0.2 6.9 5.1 6.9 c 2.9 0 6.8 -1.9 6.8 -6.9 v -23.8 h 5.4 L 330.4 305.6 L 330.4 305.6 z" stroke-linecap="round"/>
</g>
		<g transform="matrix(1 0 0 1 29.5 103.05)" id="Layer_2">
<path style="stroke: none; stroke-width: 1; stroke-dasharray: none; stroke-linecap: butt; stroke-dashoffset: 0; stroke-linejoin: miter; stroke-miterlimit: 4; is-custom-font: none; font-file-url: none; fill: rgb(255,255,255); fill-rule: nonzero; opacity: 1;" transform=" translate(-349.5, -283.05)" d="M 337.5 259.7 h 5.4 V 275 h 0.1 c 1.2 -2.9 4.5 -4.8 8 -4.8 c 9.3 0 10.5 10.9 10.5 18.1 c 0 9.7 -3.3 18.1 -11.2 18.1 c -3.7 0 -6.8 -2.6 -7.4 -5.1 h -0.2 v 4.2 h -5.2 V 259.7 z M 349.5 301.9 c 5 0 6.3 -5.7 6.3 -13.5 c 0 -8.2 -1.3 -13.5 -6.3 -13.5 c -5.8 0 -7 6.8 -7 13.5 C 342.5 295.5 343.7 301.9 349.5 301.9 z" stroke-linecap="round"/>
</g>
		<g transform="matrix(1 0 0 1 58 108.25)" id="Layer_2">
<path style="stroke: none; stroke-width: 1; stroke-dasharray: none; stroke-linecap: butt; stroke-dashoffset: 0; stroke-linejoin: miter; stroke-miterlimit: 4; is-custom-font: none; font-file-url: none; fill: rgb(255,255,255); fill-rule: nonzero; opacity: 1;" transform=" translate(-378, -288.25)" d="M 371.7 289 c 0 5.3 0 13.2 6.6 13.2 c 5.1 0 5.9 -5.4 5.9 -8 h 5.4 c 0 3.7 -2.2 12.2 -11.6 12.2 c -8.4 0 -11.9 -5.9 -11.9 -17.7 c 0 -8.6 1.7 -18.6 12.3 -18.6 c 10.5 0 11.5 9.2 11.5 16.6 v 2.2 C 389.9 289 371.7 289 371.7 289 z M 384.2 284.8 v -1.9 c 0 -3.9 -1.2 -8.4 -6 -8.4 c -5.7 0 -6.3 7 -6.3 9 v 1.3 C 371.9 284.8 384.2 284.8 384.2 284.8 z" stroke-linecap="round"/>
</g>
		<g transform="matrix(1 0 0 1 34.2 -65.3)" id="Layer_2">
<polygon style="stroke: none; stroke-width: 1; stroke-dasharray: none; stroke-linecap: butt; stroke-dashoffset: 0; stroke-linejoin: miter; stroke-miterlimit: 4; is-custom-font: none; font-file-url: none; fill: rgb(60,180,230); fill-rule: nonzero; opacity: 1;" points="-80.9,-55.5 -4.3,-83.8 80.9,-60.8 66.8,26.4 7.6,83.8 -66.1,33.5 "/>
</g>
		<g transform="matrix(1 0 0 1 34.2 -65.3)" id="Layer_2">
<polygon style="stroke: none; stroke-width: 1; stroke-dasharray: none; stroke-linecap: butt; stroke-dashoffset: 0; stroke-linejoin: miter; stroke-miterlimit: 4; is-custom-font: none; font-file-url: none; fill: rgb(60,180,230); fill-rule: nonzero; opacity: 1;" points="-80.9,-55.5 -4.3,-83.8 80.9,-60.8 66.8,26.4 7.6,83.8 -66.1,33.5 "/>
</g>
		<g transform="matrix(1 0 0 1 -18.85 -120.3)" id="Layer_2">
<polygon style="stroke: none; stroke-width: 1; stroke-dasharray: none; stroke-linecap: butt; stroke-dashoffset: 0; stroke-linejoin: miter; stroke-miterlimit: 4; is-custom-font: none; font-file-url: none; fill: rgb(255,255,255); fill-rule: nonzero; opacity: 1;" points="-2.75,9.6 -24.25,0.5 2.75,-9.6 24.25,-1.6 "/>
</g>
		<g transform="matrix(1 0 0 1 8.5 -131.35)" id="Layer_2">
<polygon style="stroke: none; stroke-width: 1; stroke-dasharray: none; stroke-linecap: butt; stroke-dashoffset: 0; stroke-linejoin: miter; stroke-miterlimit: 4; is-custom-font: none; font-file-url: none; fill: rgb(255,255,255); fill-rule: nonzero; opacity: 1;" points="0.1,8.25 -22.1,0.45 0.4,-8.25 22.1,-1.15 "/>
</g>
		<g transform="matrix(1 0 0 1 31.9 -140.35)" id="Layer_2">
<polygon style="stroke: none; stroke-width: 1; stroke-dasharray: none; stroke-linecap: butt; stroke-dashoffset: 0; stroke-linejoin: miter; stroke-miterlimit: 4; is-custom-font: none; font-file-url: none; fill: rgb(255,255,255); fill-rule: nonzero; opacity: 1;" points="1.3,6.95 -20.5,0.05 -1.4,-6.95 20.5,-1.05 "/>
</g>
		<g transform="matrix(1 0 0 1 58.15 -132.5)" id="Layer_2">
<polygon style="stroke: none; stroke-width: 1; stroke-dasharray: none; stroke-linecap: butt; stroke-dashoffset: 0; stroke-linejoin: miter; stroke-miterlimit: 4; is-custom-font: none; font-file-url: none; fill: rgb(255,255,255); fill-rule: nonzero; opacity: 1;" points="-22.05,-0.2 -3.65,-7.8 22.05,-1.1 3.95,7.8 "/>
</g>
		<g transform="matrix(1 0 0 1 35.35 -122.25)" id="Layer_2">
<polygon style="stroke: none; stroke-width: 1; stroke-dasharray: none; stroke-linecap: butt; stroke-dashoffset: 0; stroke-linejoin: miter; stroke-miterlimit: 4; is-custom-font: none; font-file-url: none; fill: rgb(255,255,255); fill-rule: nonzero; opacity: 1;" points="24.15,-1.25 -1.55,-9.55 -24.15,0.35 2.15,9.55 "/>
</g>
		<g transform="matrix(1 0 0 1 7.95 -109.7)" id="Layer_2">
<polygon style="stroke: none; stroke-width: 1; stroke-dasharray: none; stroke-linecap: butt; stroke-dashoffset: 0; stroke-linejoin: miter; stroke-miterlimit: 4; is-custom-font: none; font-file-url: none; fill: rgb(255,255,255); fill-rule: nonzero; opacity: 1;" points="26.65,-1.9 0.25,-11.6 -26.65,-0.3 -0.45,11.6 "/>
</g>
		<g transform="matrix(1 0 0 1 66.75 -111.6)" id="Layer_2">
<polygon style="stroke: none; stroke-width: 1; stroke-dasharray: none; stroke-linecap: butt; stroke-dashoffset: 0; stroke-linejoin: miter; stroke-miterlimit: 4; is-custom-font: none; font-file-url: none; fill: rgb(255,255,255); fill-rule: nonzero; opacity: 1;" points="-25.55,-0.2 -4.25,-11.2 25.55,-1.8 5.15,11.2 "/>
</g>
		<g transform="matrix(1 0 0 1 88.8 -124)" id="Layer_2">
<polygon style="stroke: none; stroke-width: 1; stroke-dasharray: none; stroke-linecap: butt; stroke-dashoffset: 0; stroke-linejoin: miter; stroke-miterlimit: 4; is-custom-font: none; font-file-url: none; fill: rgb(255,255,255); fill-rule: nonzero; opacity: 1;" points="6.5,8.9 -23.5,0 -5.6,-8.9 23.5,-0.9 "/>
</g>
		<g transform="matrix(1 0 0 1 81.8 -87.65)" id="Layer_2">
<polygon style="stroke: none; stroke-width: 1; stroke-dasharray: none; stroke-linecap: butt; stroke-dashoffset: 0; stroke-linejoin: miter; stroke-miterlimit: 4; is-custom-font: none; font-file-url: none; fill: rgb(255,255,255); fill-rule: nonzero; opacity: 1;" points="-8.3,-10.45 11.5,-23.25 8.2,8.15 -11.5,23.25 "/>
</g>
		<g transform="matrix(1 0 0 1 102.75 -102.2)" id="Layer_2">
<polygon style="stroke: none; stroke-width: 1; stroke-dasharray: none; stroke-linecap: butt; stroke-dashoffset: 0; stroke-linejoin: miter; stroke-miterlimit: 4; is-custom-font: none; font-file-url: none; fill: rgb(255,255,255); fill-rule: nonzero; opacity: 1;" points="-10.45,20.6 5.35,9.2 10.45,-20.6 -6.05,-10.3 "/>
</g>
		<g transform="matrix(1 0 0 1 97.6 -70.1)" id="Layer_2">
<polygon style="stroke: none; stroke-width: 1; stroke-dasharray: none; stroke-linecap: butt; stroke-dashoffset: 0; stroke-linejoin: miter; stroke-miterlimit: 4; is-custom-font: none; font-file-url: none; fill: rgb(255,255,255); fill-rule: nonzero; opacity: 1;" points="-6.4,-7.1 9.9,-19.5 6,5.7 -9.9,19.5 "/>
</g>
		<g transform="matrix(1 0 0 1 78.6 -54.95)" id="Layer_2">
<polygon style="stroke: none; stroke-width: 1; stroke-dasharray: none; stroke-linecap: butt; stroke-dashoffset: 0; stroke-linejoin: miter; stroke-miterlimit: 4; is-custom-font: none; font-file-url: none; fill: rgb(255,255,255); fill-rule: nonzero; opacity: 1;" points="7.6,5.75 11,-21.35 -9,-6.45 -11,21.35 "/>
</g>
		<g transform="matrix(1 0 0 1 55.2 -35.8)" id="Layer_2">
<polygon style="stroke: none; stroke-width: 1; stroke-dasharray: none; stroke-linecap: butt; stroke-dashoffset: 0; stroke-linejoin: miter; stroke-miterlimit: 4; is-custom-font: none; font-file-url: none; fill: rgb(255,255,255); fill-rule: nonzero; opacity: 1;" points="10.1,4.7 12.4,-23.3 -11.3,-7.9 -12.4,23.3 "/>
</g>
		<g transform="matrix(1 0 0 1 93.4 -43.15)" id="Layer_2">
<polygon style="stroke: none; stroke-width: 1; stroke-dasharray: none; stroke-linecap: butt; stroke-dashoffset: 0; stroke-linejoin: miter; stroke-miterlimit: 4; is-custom-font: none; font-file-url: none; fill: rgb(255,255,255); fill-rule: nonzero; opacity: 1;" points="5.6,4.45 -9.3,18.25 -6.6,-4.75 9.3,-18.25 "/>
</g>
		<g transform="matrix(1 0 0 1 74.9 -26.2)" id="Layer_2">
<polygon style="stroke: none; stroke-width: 1; stroke-dasharray: none; stroke-linecap: butt; stroke-dashoffset: 0; stroke-linejoin: miter; stroke-miterlimit: 4; is-custom-font: none; font-file-url: none; fill: rgb(255,255,255); fill-rule: nonzero; opacity: 1;" points="10.1,-20.1 7.4,2.9 -10.1,20.1 -8.3,-4 "/>
</g>
		<g transform="matrix(1 0 0 1 53.35 -6.5)" id="Layer_2">
<polygon style="stroke: none; stroke-width: 1; stroke-dasharray: none; stroke-linecap: butt; stroke-dashoffset: 0; stroke-linejoin: miter; stroke-miterlimit: 4; is-custom-font: none; font-file-url: none; fill: rgb(255,255,255); fill-rule: nonzero; opacity: 1;" points="11.45,-22.1 -10.75,-2.8 -11.45,22.1 9.85,1.3 "/>
</g>
		<g transform="matrix(1 0 0 1 26.6 -34)" id="Layer_2">
<polygon style="stroke: none; stroke-width: 1; stroke-dasharray: none; stroke-linecap: butt; stroke-dashoffset: 0; stroke-linejoin: miter; stroke-miterlimit: 4; is-custom-font: none; font-file-url: none; fill: rgb(255,255,255); fill-rule: nonzero; opacity: 1;" points="14.3,22.6 14.3,-8.8 -14.3,-22.6 -12.9,4.9 "/>
</g>
		<g transform="matrix(1 0 0 1 -2.5 -51.15)" id="Layer_2">
<polygon style="stroke: none; stroke-width: 1; stroke-dasharray: none; stroke-linecap: butt; stroke-dashoffset: 0; stroke-linejoin: miter; stroke-miterlimit: 4; is-custom-font: none; font-file-url: none; fill: rgb(255,255,255); fill-rule: nonzero; opacity: 1;" points="13.2,20.75 12,-7.25 -13.2,-20.75 -10,6.05 "/>
</g>
		<g transform="matrix(1 0 0 1 -27.05 -65.55)" id="Layer_2">
<polygon style="stroke: none; stroke-width: 1; stroke-dasharray: none; stroke-linecap: butt; stroke-dashoffset: 0; stroke-linejoin: miter; stroke-miterlimit: 4; is-custom-font: none; font-file-url: none; fill: rgb(255,255,255); fill-rule: nonzero; opacity: 1;" points="8.85,-8.25 12.05,19.25 -7.25,6.95 -12.05,-19.25 "/>
</g>
		<g transform="matrix(1 0 0 1 -22.55 -37.9)" id="Layer_2">
<polygon style="stroke: none; stroke-width: 1; stroke-dasharray: none; stroke-linecap: butt; stroke-dashoffset: 0; stroke-linejoin: miter; stroke-miterlimit: 4; is-custom-font: none; font-file-url: none; fill: rgb(255,255,255); fill-rule: nonzero; opacity: 1;" points="8.45,-5.6 -11.25,-18 -7.55,4.3 11.25,18 "/>
</g>
		<g transform="matrix(1 0 0 1 0.25 -22.9)" id="Layer_2">
<polygon style="stroke: none; stroke-width: 1; stroke-dasharray: none; stroke-linecap: butt; stroke-dashoffset: 0; stroke-linejoin: miter; stroke-miterlimit: 4; is-custom-font: none; font-file-url: none; fill: rgb(255,255,255); fill-rule: nonzero; opacity: 1;" points="-12.25,-19.5 10.95,-4.8 12.25,19.5 -9.55,4.4 "/>
</g>
		<g transform="matrix(1 0 0 1 26.95 -5.35)" id="Layer_2">
<polygon style="stroke: none; stroke-width: 1; stroke-dasharray: none; stroke-linecap: butt; stroke-dashoffset: 0; stroke-linejoin: miter; stroke-miterlimit: 4; is-custom-font: none; font-file-url: none; fill: rgb(255,255,255); fill-rule: nonzero; opacity: 1;" points="-13.55,-20.95 13.55,-3.95 13.35,20.95 -12.35,3.15 "/>
</g>
		<g transform="matrix(1 0 0 1 23.2 -87.1)" id="Layer_2">
<polygon style="stroke: none; stroke-width: 1; stroke-dasharray: none; stroke-linecap: butt; stroke-dashoffset: 0; stroke-linejoin: miter; stroke-miterlimit: 4; is-custom-font: none; font-file-url: none; fill: rgb(255,255,255); fill-rule: nonzero; opacity: 1;" points="13.4,-23.6 -13.9,-9.1 -12.5,23.6 13.9,9.2 "/>
</g>
		<g transform="matrix(1 0 0 1 54.95 -86.75)" id="Layer_2">
<polygon style="stroke: none; stroke-width: 1; stroke-dasharray: none; stroke-linecap: butt; stroke-dashoffset: 0; stroke-linejoin: miter; stroke-miterlimit: 4; is-custom-font: none; font-file-url: none; fill: rgb(255,255,255); fill-rule: nonzero; opacity: 1;" points="-15.35,-23.25 -15.55,8.65 12.85,23.25 15.55,-11.15 "/>
</g>
		<g transform="matrix(1 0 0 1 -4.85 -84.15)" id="Layer_2">
<polygon style="stroke: none; stroke-width: 1; stroke-dasharray: none; stroke-linecap: butt; stroke-dashoffset: 0; stroke-linejoin: miter; stroke-miterlimit: 4; is-custom-font: none; font-file-url: none; fill: rgb(255,255,255); fill-rule: nonzero; opacity: 1;" points="14.35,23.55 12.05,-11.55 -14.35,-23.55 -11.05,9.75 "/>
</g>
		<g transform="matrix(1 0 0 1 -31.25 -97)" id="Layer_2">
<polygon style="stroke: none; stroke-width: 1; stroke-dasharray: none; stroke-linecap: butt; stroke-dashoffset: 0; stroke-linejoin: miter; stroke-miterlimit: 4; is-custom-font: none; font-file-url: none; fill: rgb(255,255,255); fill-rule: nonzero; opacity: 1;" points="12.65,21 9.45,-11.4 -12.65,-21 -7.95,10.1 "/>
</g>
		<g transform="matrix(1 0 0 1 36.7011 -70.0362)" id="Layer_2">
<path style="stroke: none; stroke-width: 1; stroke-dasharray: none; stroke-linecap: butt; stroke-dashoffset: 0; stroke-linejoin: miter; stroke-miterlimit: 4; is-custom-font: none; font-file-url: none; fill: rgb(255,255,255); fill-rule: nonzero; opacity: 1;" transform=" translate(-356.7011, -109.9639)" d="M 354.1 144.5 c 0 0 -0.3 1.2 -2.9 -0.5 c -2.6 -1.7 -23.4 -20.3 -23.4 -20.3 s -0.3 -0.2 -0.3 -1.4 c 0 -1.2 -2.6 -34.1 -2.6 -34.1 s -0.1 -0.9 1.8 -1.7 c 1.9 -0.8 32.2 -11.2 32.2 -11.2 s 1.6 -0.7 3.1 0.1 s 25.6 14.2 25.6 14.2 s 0.8 0.7 0.9 3.1 c 0.1 2.4 -2.3 34.5 -2.3 34.5 s 0.3 0.6 -1.1 1.2 C 383.5 129.3 354.1 144.5 354.1 144.5" stroke-linecap="round"/>
</g>
		<g transform="matrix(1 0 0 1 36.8 -89.8)" id="Layer_2">
<polygon style="stroke: none; stroke-width: 1; stroke-dasharray: none; stroke-linecap: butt; stroke-dashoffset: 0; stroke-linejoin: miter; stroke-miterlimit: 4; is-custom-font: none; font-file-url: none; fill: rgb(60,180,230); fill-rule: nonzero; opacity: 1;" points="-4.3,14.7 -29.8,-3.2 3.2,-14.7 29.8,0.2 "/>
</g>
		<g transform="matrix(1 0 0 1 36.8 -89.8)" id="Layer_2">
<polygon style="stroke: none; stroke-width: 1; stroke-dasharray: none; stroke-linecap: butt; stroke-dashoffset: 0; stroke-linejoin: miter; stroke-miterlimit: 4; is-custom-font: none; font-file-url: none; fill: rgb(60,180,230); fill-rule: nonzero; opacity: 1;" points="-4.3,14.7 -29.8,-3.2 3.2,-14.7 29.8,0.2 "/>
</g>
		<g transform="matrix(1 0 0 1 50.9 -62.1)" id="Layer_2">
<polygon style="stroke: none; stroke-width: 1; stroke-dasharray: none; stroke-linecap: butt; stroke-dashoffset: 0; stroke-linejoin: miter; stroke-miterlimit: 4; is-custom-font: none; font-file-url: none; fill: rgb(60,180,230); fill-rule: nonzero; opacity: 1;" points="-16.8,-11.2 -17.1,25.2 14.8,9.6 17.1,-25.2 "/>
</g>
		<g transform="matrix(1 0 0 1 50.9 -62.1)" id="Layer_2">
<polygon style="stroke: none; stroke-width: 1; stroke-dasharray: none; stroke-linecap: butt; stroke-dashoffset: 0; stroke-linejoin: miter; stroke-miterlimit: 4; is-custom-font: none; font-file-url: none; fill: rgb(60,180,230); fill-rule: nonzero; opacity: 1;" points="-16.8,-11.2 -17.1,25.2 14.8,9.6 17.1,-25.2 "/>
</g>
		<g transform="matrix(1 0 0 1 18.6 -64.25)" id="Layer_2">
<polygon style="stroke: none; stroke-width: 1; stroke-dasharray: none; stroke-linecap: butt; stroke-dashoffset: 0; stroke-linejoin: miter; stroke-miterlimit: 4; is-custom-font: none; font-file-url: none; fill: rgb(60,180,230); fill-rule: nonzero; opacity: 1;" points="12.5,-9.05 -12.7,-27.15 -10.7,7.25 12.7,27.15 "/>
</g>
		<g transform="matrix(1 0 0 1 18.6 -64.25)" id="Layer_2">
<polygon style="stroke: none; stroke-width: 1; stroke-dasharray: none; stroke-linecap: butt; stroke-dashoffset: 0; stroke-linejoin: miter; stroke-miterlimit: 4; is-custom-font: none; font-file-url: none; fill: rgb(60,180,230); fill-rule: nonzero; opacity: 1;" points="12.5,-9.05 -12.7,-27.15 -10.7,7.25 12.7,27.15 "/>
</g>
</g>
</g>
</svg>